# xmcd
#
# Track frame offsets:
#	150
#	20527
#	39357
#	54274
#	73802
#	90974
#	110572
#	126705
#	143616
#	161768
#	181389
#
# Disc length: 2649 seconds
#
# Revision: 0
# Processed by: cddbd v1.5.2PL0 Copyright (c) Steve Scherf et al.
# Submitted via: EasyCDDAExtractor 15.3.0.1
#
DISCID=940a570b
DTITLE=Alessandra - Rompecorazones
DYEAR=2006
DGENRE=Latin
TTITLE0=Amame, Besame
TTITLE1=Rompecorazones
TTITLE2=Que Me Importa
TTITLE3=El Secreto
TTITLE4=Tu
TTITLE5=Dame Mas De Ti
TTITLE6=Lo Siento En La Piel
TTITLE7=En Busca Del Amor
TTITLE8=Sin Ti
TTITLE9=Enferma De Amor
TTITLE10=Empezar De Cero
EXTD=
EXTT0=
EXTT1=
EXTT2=
EXTT3=
EXTT4=
EXTT5=
EXTT6=
EXTT7=
EXTT8=
EXTT9=
EXTT10=
PLAYORDER=
